<?xml version="1.0" encoding="UTF-8"?>
<!DOCTYPE svg  PUBLIC '-//W3C//DTD SVG 1.1//EN'  'http://www.w3.org/Graphics/SVG/1.1/DTD/svg11.dtd'>
<svg clip-rule="evenodd" fill-rule="evenodd" stroke-linejoin="round" stroke-miterlimit="2" version="1.1" viewBox="0 0 1e3 1e3" xml:space="preserve" xmlns="http://www.w3.org/2000/svg">
    
        <g transform="matrix(.74999 0 0 .74999 -774.98 .00074999)">
            <path d="m1227.6 1e3h-27.5l-0.15-246.56 217.5-376.72h170l-359.85 623.28zm972.36-342v342l-347.66-1e-3 -197.45-342h545.11zm-392.66 342h-535l267.65-463.06 267.35 463.06zm392.66-381h-387.39l357.38-619h30l0.01 619zm-457.04-242.98c14.81 0.062 28.98 8.766 36.64 21.665 0.08 0.131 0.23 0.394 0.23 0.394l44.95 77.864s0.26 0.435 0.38 0.645c7.35 12.853 7.63 29.049 0.29 42.136-15.07 26.364-30.37 52.602-45.55 78.903-7.46 12.791-21.58 21.136-36.58 21.323-28.63 0.12-86.03 0.054-86.11 0.054-14.81-0.062-29.21-7.963-36.87-20.862-0.17-0.28-0.5-0.85-0.5-0.85s-44.96-77.872-45.06-78.053c-7.35-12.853-7.34-29.459 0-42.546l0.33-0.577s30.09-52.217 45.16-78.326c7.46-12.791 21.6-21.591 36.6-21.779 0.25-1e-3 0.75-0.012 0.75-0.012l84.83 0.021h0.51zm-107.97-376.02h490l-265 458.99-245-424.35 20-34.641zm110 337.75h-305l152.5-264.14 152.5 264.14z" fill="#fff"/>
        </g>
        <g transform="matrix(.1857 0 0 .25459 -169.44 554.01)">
            <path d="m2480.1 1215.1h-226.58v524.15h140.26v-174.7h86.32c211.48 0 320.45-53.53 320.45-175.51s-108.97-173.94-320.45-173.94zm-4.31 268.38h-82.01v-187.32h82.01c118.68 0 182.34 20.48 182.34 92.88 0 72.39-63.66 94.44-182.34 94.44zm408.93 255.77h134.87v-214.85c0-75.54 48.55-108.6 117.6-108.6 59.34 0 89.56 25.96 89.56 81.83v241.62h134.84v-255c0-101.5-74.44-148.75-181.24-148.75-75.53 0-128.4 26-157.53 71.63h-3.23v-216.42h-134.87v548.54zm830.78 11.01c162.97 0 268.69-80.26 268.69-206.96 0-126.73-105.72-207.79-268.69-207.79-161.81 0-268.64 85.01-268.64 207.79 0 126.7 104.67 206.96 268.64 206.96zm0-75.54c-76.6 0-130.53-46.44-130.53-131.42 0-85.78 53.93-132.25 130.53-132.25 77.7 0 130.59 46.47 130.59 132.25 0 84.98-52.89 131.42-130.59 131.42zm603.15 0.8c-50.68 0-70.13-21.28-70.13-69.25v-187.32h120.86v-71.63h-120.86v-125.93l-134.85 19.67v106.26h-92.79v71.63h92.79v196.75c0 92.88 53.94 132.99 170.44 132.99 36.69 0 74.49-3.92 104.67-16.53v-70.83c-17.25 7.86-42.06 14.19-70.13 14.19zm368.99 74.74c162.97 0 268.69-80.26 268.69-206.96 0-126.73-105.72-207.79-268.69-207.79-161.81 0-268.64 85.01-268.64 207.79 0 126.7 104.67 206.96 268.64 206.96zm0-75.54c-76.59 0-130.53-46.44-130.53-131.42 0-85.78 53.94-132.25 130.53-132.25 77.7 0 130.59 46.47 130.59 132.25 0 84.98-52.89 131.42-130.59 131.42z" fill="#fff" fill-rule="nonzero"/>
            <g transform="translate(0 128.01)">
                <path d="m2862.4 764.25h-169.43v102.72h96.94v23.97h-96.94v128.84h-35.31v-279.78h204.74v24.25zm883.02 255.53h-35.7v-279.78h35.7v279.78zm-497.91 0h-35.74v-279.78h35.74v279.78zm-108.06-255.53h-169.43v102.71h96.94v23.97h-96.94v128.84h-35.31v-279.78h204.74v24.251zm918.07 0h-101.85v255.53h-35.74v-255.53h-102.41v-24.251h240v24.251zm-702.3 255.53h-35.31v-279.78h38.01l243.48 235.93v-235.93h35.74v279.78h-34.83l-247.09-240.08v240.08zm932.19 0h-36.13v-68.422l-165.44-211.36h40.74l142.76 181.36 142.77-181.36h40.74l-165.44 211.36v68.422zm-1661.3 0h-38.04l-148.54-244.18c-9.3 15.618-99.72 165.6-109.37 181.49 18.94 0 181.03 1.175 190.33 1.21l14.76 23.536c-32.31-0.146-177.2-0.488-220.11-0.488-3.91 6.019-20.37 32.69-23.59 38.43h-38.04l169.95-279.78h32.7l169.95 279.78z" fill="#fff"/>
            </g>
        </g>
    
</svg>
