<?xml version="1.0" encoding="UTF-8"?>
<!DOCTYPE svg  PUBLIC '-//W3C//DTD SVG 1.1//EN'  'http://www.w3.org/Graphics/SVG/1.1/DTD/svg11.dtd'>
<svg clip-rule="evenodd" fill-rule="evenodd" stroke-linejoin="round" stroke-miterlimit="2" version="1.1" viewBox="0 0 1e3 1e3" xml:space="preserve" xmlns="http://www.w3.org/2000/svg">
    
        <g transform="matrix(8.6021 0 0 8.602 -2352.3 3740.4)" fill="#fff">
            <path d="m364.47-333.75c0.171-1.908 1.646-3.118 3.899-3.118 2.256 0 3.73 1.21 3.901 3.118h-7.8zm7.569 4.711c-0.577 1.414-1.937 2.251-3.784 2.251-2.313 0-3.87-1.444-3.933-3.725h13.297v-0.671c0-5.714-3.354-8.925-9.364-8.925-5.836 0-9.365 3.241-9.365 8.324 0 5.114 3.584 8.35 9.365 8.35 3.469 0 6.159-1.189 7.817-3.279l-4.033-2.325z" fill-rule="nonzero"/>
            <path d="m305.47-333.74c0.176-1.908 1.651-3.118 3.906-3.118 2.252 0 3.726 1.21 3.899 3.118h-7.805zm7.574 4.711c-0.578 1.418-1.937 2.255-3.788 2.255-2.309 0-3.87-1.448-3.931-3.73h13.294v-0.667c0-5.717-3.353-8.929-9.363-8.929-5.839 0-9.361 3.242-9.361 8.325 0 5.114 3.582 8.35 9.361 8.35 3.468 0 6.16-1.185 7.821-3.278l-4.033-2.326z" fill-rule="nonzero"/>
            <rect x="293.91" y="-343.56" width="4.795" height="19.617"/>
            <path d="m319.81-338.35h4.822v1.168c1.707-1.822 3.757-2.743 6.069-2.743 2.663 0 4.679 0.921 5.72 2.489 0.869 1.295 0.926 2.858 0.926 4.912v8.579h-4.829v-7.538c0-3.128-0.629-4.572-3.375-4.572-2.775 0-4.511 1.653-4.511 4.428v7.682h-4.822v-14.405z" fill-rule="nonzero"/>
            <path d="m352.88-331.54c0 2.685-1.794 4.446-4.57 4.446-2.778 0-4.572-1.701-4.572-4.415 0-2.754 1.77-4.454 4.572-4.454 2.776 0 4.57 1.73 4.57 4.423zm0-6.157c-1.219-1.307-2.983-2.024-5.435-2.024-5.29 0-8.902 3.262-8.902 8.151 0 4.793 3.587 8.146 8.815 8.146 2.397 0 4.157-0.606 5.522-1.965v1.444h4.825v-20.861l-4.825 1.244v5.865z" fill-rule="nonzero"/>
            <path d="m282.95-335.96c2.804 0 4.567 1.7 4.567 4.454 0 2.714-1.791 4.415-4.567 4.415-2.774 0-4.566-1.761-4.566-4.446 0-2.693 1.792-4.423 4.566-4.423zm-4.566-7.599-4.827-1.244v20.861h4.827v-1.444c1.358 1.359 3.121 1.965 5.52 1.965 5.231 0 8.813-3.353 8.813-8.146 0-4.889-3.613-8.151-8.9-8.151-2.457 0-4.22 0.717-5.433 2.024v-5.865z" fill-rule="nonzero"/>
            <path d="m378.81-323.94v-14.405h4.825v0.89c1.445-1.74 2.974-2.606 4.713-2.606 0.345 0 0.779 0.056 1.356 0.113v4.107c-0.465-0.061-0.983-0.061-1.533-0.061-2.805 0-4.536 1.85-4.536 4.996v6.966h-4.825z" fill-rule="nonzero"/>
        </g>
        <g transform="matrix(1.3394 0 0 1.3394 15.265 3.0362)">
            <path d="m204.52 347.02c-0.145-8.181 1.654-21.813 1.654-21.813l-123.38 100.97c-21.547 17.406-50.531 17.372-64.163-0.1-13.432-17.184-6.539-44.337 14.786-60.666 0.267-0.211 0.577-0.433 0.866-0.644l226.06-173.52-126.68 0.244 0.034-0.078c-21.481-0.077-35.512-14.553-31.471-32.003 3.929-17.129 23.789-30.683 44.448-30.705h0.333l249.94-0.266-82.003-66.683 0.056-0.055c-12.766-10.468-11.123-27.064 3.219-37.099 14.187-9.924 35.878-9.957 48.778-0.055 0.188 0.122 0.333 0.266 0.51 0.399l196.61 150.96-0.045 0.033c19.483 15.108 35.867 33.058 48.578 53.561 13.898 22.313 22.923 46.79 26.631 72.877 1.898 13.387 2.331 26.786 1.299 40.162-1.055 13.577-3.686 27.108-7.848 40.441-8.282 26.386-22.269 50.841-41.751 72.443-19.971 22.124-44.581 39.963-73.033 52.696-29.906 13.343-62.309 20.225-95.912 20.27-33.658 0.055-66.062-6.694-95.967-19.937-28.452-12.611-53.085-30.372-73.089-52.485-19.493-21.513-33.502-45.924-41.762-72.31-3.929-12.467-6.549-28.429-6.693-36.644zm317.03 45.646c12.422-12.654 21.513-27.152 27.153-42.638 5.517-15.186 7.659-31.271 6.261-47.5-1.399-15.93-6.095-31.027-13.677-44.725-7.415-13.454-17.617-25.587-30.205-35.844-24.733-20.071-56.171-30.872-89.107-30.827-32.904 0.044-64.364 10.945-89.074 31.082-12.611 10.301-22.824 22.479-30.239 35.955-7.549 13.71-12.278 28.862-13.621 44.748-1.421 16.251 0.722 32.358 6.239 47.533 5.628 15.441 14.753 29.939 27.175 42.538 25.421 25.854 61.01 40.407 99.575 40.341 38.509-0.078 74.099-14.764 99.52-40.663zm-181.71-88.162c1.177-20.992 11.456-39.485 26.964-52.595 15.208-12.877 35.678-20.748 58.013-20.748 22.313 0 42.783 7.871 58.003 20.748 15.497 13.11 25.776 31.603 26.964 52.573 1.177 21.569-7.493 41.606-22.702 56.458-15.508 15.109-37.565 24.589-62.265 24.589-24.699 0-46.801-9.48-62.298-24.589-15.219-14.852-23.867-34.889-22.679-56.436z" fill="#fff" fill-rule="nonzero"/>
        </g>
    
</svg>
