<?xml version="1.0" encoding="UTF-8"?>
<!DOCTYPE svg  PUBLIC '-//W3C//DTD SVG 1.1//EN'  'http://www.w3.org/Graphics/SVG/1.1/DTD/svg11.dtd'>
<svg clip-rule="evenodd" fill-rule="evenodd" stroke-linejoin="round" stroke-miterlimit="2" version="1.1" viewBox="0 0 1672 251" xml:space="preserve" xmlns="http://www.w3.org/2000/svg">
    <g transform="translate(-1125 -51.998)">
        <path d="m2727 88.785c-33.26 0-67.24 24.482-67.24 62.974 0 21.505 14.49 40.76 39.22 53.013 24.51 12.252 46.53 19.004 46.53 34.008 0 19.255-19.51 20.255-29.77 20.255-23 0-50.48-23.256-50.48-23.256l-23.5 39.494s29.24 27.23 77.48 27.23c40.26 0 77.74-17.237 77.74-66.474 0-27.006-25.24-46.511-48.22-56.264-23.52-10.002-43.03-18.254-43.03-29.757 0-11.253 8.51-18.505 24.52-18.505 21.26 0 41.74 14.254 41.74 14.254l18.99-37.472c0-0.014-26.48-19.5-63.98-19.5zm-1546.5 62.982h-23.2l57.9-99.769 57.9 99.769h-23.61l42.65 55.157h-32.14l45 49.882h-69.41v42.194h-41.19v-42.194h-69.4l45-49.882h-32.14l42.64-55.157zm187.96 19.006h0.5l82.03 127.98h46.97v-206.22h-46.97v127.98h-0.5l-82.03-127.98h-46.97v206.22h46.97v-127.98zm966.5 0h0.5l82.03 127.98h46.97v-206.22h-46.97v127.98h-0.5l-82.03-127.98h-46.97v206.22h46.97v-127.98zm-138.99-78.238h-43.49l-83.24 206.22h50.49l15.25-41.251h78.49l15.25 41.251h50.49l-83.24-206.22zm-375.75 206.22h52l58.74-206.22h-51.99l-35.25 141.5h-1.25l-37.5-141.5h-35.49l-37.5 141.5h-1.25l-35.24-141.5h-52.25l58.75 206.22h52.24l33-115.72 32.99 115.72zm-185.26-206.22h-117.97v206.22h117.97v-41.218h-71v-41.532h68v-41.218h-68v-41.032h71v-41.218zm354.25 0h-46.97v206.22h117.97v-41.218h-71v-165zm494.28 0v206.22h59.73c56.77 0 103.99-42.969 103.99-103.23 0-60.016-47.47-102.98-103.99-102.98h-59.73zm46.97 164.25v-122.28h7.25c35.02 0 58.78 26.757 58.78 61.266-0.25 34.509-24.01 61.016-58.78 61.016h-7.25zm-332.99-40.5h-46.49l22.99-60h0.5l23 60z" fill="#fff" fill-rule="nonzero"/>
    </g>
</svg>
