<?xml version="1.0" encoding="UTF-8"?>
<!DOCTYPE svg  PUBLIC '-//W3C//DTD SVG 1.1//EN'  'http://www.w3.org/Graphics/SVG/1.1/DTD/svg11.dtd'>
<svg clip-rule="evenodd" fill-rule="evenodd" stroke-linejoin="round" stroke-miterlimit="2" version="1.1" viewBox="0 0 1061 151" xml:space="preserve" xmlns="http://www.w3.org/2000/svg">
    <g transform="translate(-117 -381.79)">
        <path d="m260.33 411.03c0-11.605-9.422-21.027-21.027-21.027h-101.28c-11.605 0-21.027 9.422-21.027 21.027v98.124c0 11.605 9.422 21.027 21.027 21.027h101.28c11.605 0 21.027-9.422 21.027-21.027v-98.124zm-21.027 27.71c0-5.803-4.711-10.514-10.513-10.514h-79.722c-5.803 0-10.514 4.711-10.514 10.514v49.062c0 5.802 4.711 10.513 10.514 10.513h79.722c5.802 0 10.513-4.711 10.513-10.513v-49.062zm-88.962 52.552 17.908-32.07 7.638 13.678 10.27-24.727 9.643 23.217 4.683-7.048 17.909 26.95h-68.051zm64.333-56.073c7.419 0 13.442 5.875 13.442 13.112s-6.023 13.112-13.442 13.112-13.442-5.875-13.442-13.112 6.023-13.112 13.442-13.112z" fill="#fff"/>
    </g>
    <g transform="translate(612.41 149.05)">
        <g transform="matrix(200 0 0 200 -462.7 -1)">
            <path d="m0.202-0.254v0.254h-0.116v-0.7h0.213c0.08 0 0.143 0.019 0.187 0.056s0.066 0.09 0.066 0.158-0.023 0.124-0.069 0.167-0.109 0.065-0.188 0.065h-0.093zm0-0.35v0.255h0.075c0.05 0 0.088-0.011 0.114-0.034s0.039-0.056 0.039-0.098c0-0.082-0.048-0.123-0.143-0.123h-0.085z" fill="#fff" fill-rule="nonzero"/>
        </g>
        <g transform="matrix(200 0 0 200 -345.8 -1)">
            <path d="m0.518-0h-0.113v-0.273c0-0.099-0.033-0.149-0.099-0.149-0.034 0-0.062 0.014-0.084 0.043-0.023 0.029-0.034 0.065-0.034 0.11v0.269h-0.114v-0.74h0.114v0.323h1e-3c0.038-0.063 0.092-0.095 0.163-0.095 0.111 0 0.166 0.068 0.166 0.204v0.308z" fill="#fff" fill-rule="nonzero"/>
        </g>
        <g transform="matrix(200 0 0 200 -229.4 -1)">
            <path d="m0.295 0.012c-0.077 0-0.138-0.024-0.184-0.07-0.046-0.047-0.069-0.109-0.069-0.186 0-0.084 0.024-0.15 0.072-0.197s0.112-0.071 0.194-0.071c0.078 0 0.139 0.023 0.182 0.069 0.044 0.046 0.066 0.11 0.066 0.191 0 0.08-0.024 0.144-0.071 0.192s-0.11 0.072-0.19 0.072zm6e-3 -0.433c-0.044 0-0.079 0.015-0.105 0.046s-0.039 0.074-0.039 0.128c0 0.052 0.013 0.094 0.039 0.124s0.061 0.045 0.105 0.045 0.079-0.015 0.103-0.045c0.023-0.029 0.035-0.071 0.035-0.126s-0.012-0.098-0.035-0.127c-0.024-0.03-0.059-0.045-0.103-0.045z" fill="#fff" fill-rule="nonzero"/>
        </g>
        <g transform="matrix(200 0 0 200 -109.96 -1)">
            <path d="m0.337-5e-3c-0.022 0.011-0.051 0.016-0.087 0.016-0.097 0-0.146-0.046-0.146-0.139v-0.283h-0.083v-0.089h0.083v-0.116l0.114-0.032v0.148h0.119v0.089h-0.119v0.25c0 0.029 5e-3 0.051 0.016 0.063 0.011 0.013 0.029 0.019 0.054 0.019 0.019 0 0.035-5e-3 0.049-0.016v0.09z" fill="#fff" fill-rule="nonzero"/>
        </g>
        <g transform="matrix(200 0 0 200 -38.867 -1)">
            <path d="m0.295 0.012c-0.077 0-0.138-0.024-0.184-0.07-0.046-0.047-0.069-0.109-0.069-0.186 0-0.084 0.024-0.15 0.072-0.197s0.112-0.071 0.194-0.071c0.078 0 0.139 0.023 0.182 0.069 0.044 0.046 0.066 0.11 0.066 0.191 0 0.08-0.024 0.144-0.071 0.192s-0.11 0.072-0.19 0.072zm6e-3 -0.433c-0.044 0-0.079 0.015-0.105 0.046s-0.039 0.074-0.039 0.128c0 0.052 0.013 0.094 0.039 0.124s0.061 0.045 0.105 0.045 0.079-0.015 0.103-0.045c0.023-0.029 0.035-0.071 0.035-0.126s-0.012-0.098-0.035-0.127c-0.024-0.03-0.059-0.045-0.103-0.045z" fill="#fff" fill-rule="nonzero"/>
        </g>
        <g transform="matrix(200 0 0 200 80.566 -1)">
            <path d="m0.627-0h-0.135l-0.112-0.188c-0.01-0.017-0.02-0.031-0.03-0.044-9e-3 -0.012-0.019-0.022-0.029-0.03s-0.021-0.013-0.032-0.017c-0.012-3e-3 -0.025-5e-3 -0.04-5e-3h-0.047v0.284h-0.116v-0.7h0.231c0.033 0 0.063 4e-3 0.091 0.012 0.027 7e-3 0.051 0.019 0.072 0.035 0.02 0.016 0.037 0.035 0.048 0.059 0.012 0.024 0.017 0.051 0.017 0.083 0 0.025-3e-3 0.047-0.011 0.068-7e-3 0.021-0.017 0.039-0.031 0.055-0.013 0.016-0.03 0.03-0.049 0.041-0.019 0.012-0.04 0.021-0.064 0.027v2e-3c0.013 7e-3 0.024 0.015 0.033 0.023 0.01 9e-3 0.019 0.018 0.027 0.027 9e-3 9e-3 0.017 0.019 0.025 0.031 9e-3 0.011 0.018 0.025 0.028 0.04l0.124 0.197zm-0.425-0.606v0.228h0.097c0.018 0 0.034-3e-3 0.049-9e-3 0.016-5e-3 0.029-0.013 0.04-0.024 0.011-0.01 0.019-0.023 0.026-0.038 6e-3 -0.015 9e-3 -0.031 9e-3 -0.05 0-0.034-0.011-0.06-0.032-0.079s-0.051-0.028-0.091-0.028h-0.098z" fill="#fff" fill-rule="nonzero"/>
        </g>
        <g transform="matrix(200 0 0 200 199.8 -1)">
            <path d="m0.497-0.219h-0.341c2e-3 0.046 0.016 0.082 0.043 0.107s0.065 0.037 0.112 0.037c0.053 0 0.102-0.016 0.147-0.048v0.092c-0.046 0.028-0.106 0.043-0.181 0.043-0.073 0-0.131-0.023-0.173-0.068-0.042-0.046-0.062-0.11-0.062-0.192 0-0.078 0.023-0.141 0.069-0.19s0.103-0.074 0.171-0.074c0.069 0 0.121 0.022 0.159 0.066 0.037 0.044 0.056 0.105 0.056 0.183v0.044zm-0.109-0.08c-1e-3 -0.041-0.01-0.073-0.029-0.095-0.019-0.023-0.045-0.034-0.078-0.034s-0.06 0.012-0.083 0.035c-0.023 0.024-0.037 0.055-0.042 0.094h0.232z" fill="#fff" fill-rule="nonzero"/>
        </g>
        <g transform="matrix(200 0 0 200 306.06 -1)">
            <path d="m0.458-0h-0.11v-0.078h-2e-3c-0.035 0.06-0.085 0.09-0.152 0.09-0.049 0-0.088-0.014-0.116-0.04-0.027-0.027-0.041-0.062-0.041-0.106 0-0.095 0.054-0.15 0.163-0.165l0.148-0.021c0-0.072-0.034-0.107-0.101-0.107-0.06 0-0.114 0.02-0.162 0.061v-0.099c0.053-0.031 0.114-0.047 0.183-0.047 0.126 0 0.19 0.062 0.19 0.187v0.325zm-0.11-0.246-0.105 0.015c-0.032 4e-3 -0.057 0.012-0.073 0.024-0.017 0.011-0.025 0.032-0.025 0.061 0 0.021 8e-3 0.038 0.023 0.052 0.015 0.013 0.035 0.02 0.061 0.02 0.034 0 0.063-0.012 0.085-0.037 0.023-0.024 0.034-0.054 0.034-0.091v-0.044z" fill="#fff" fill-rule="nonzero"/>
        </g>
        <g transform="matrix(200 0 0 200 410.45 -1)">
            <rect x=".074" y="-.74" width=".114" height=".74" fill="#fff" fill-rule="nonzero"/>
        </g>
    </g>
</svg>
