<?xml version="1.0" encoding="UTF-8"?>
<!DOCTYPE svg  PUBLIC '-//W3C//DTD SVG 1.1//EN'  'http://www.w3.org/Graphics/SVG/1.1/DTD/svg11.dtd'>
<svg clip-rule="evenodd" fill-rule="evenodd" stroke-linejoin="round" stroke-miterlimit="2" version="1.1" viewBox="0 0 119 119" xml:space="preserve" xmlns="http://www.w3.org/2000/svg">
    <path d="m118.78 26.132c0-14.423-11.71-26.132-26.132-26.132h-66.518c-14.423 0-26.132 11.709-26.132 26.132v66.518c-0 14.423 11.709 26.132 26.132 26.132h66.518c14.422 0 26.132-11.709 26.132-26.132v-66.518zm-24.661 47.189c-3e-3 -3e-3 -5e-3 -6e-3 -8e-3 -9e-3 0.131-0.447 0.267-0.892 0.382-1.35 4.93-19.642-7.102-42.864-27.463-55.091 8.922 12.096 12.867 26.747 9.362 39.559-0.312 1.143-0.688 2.24-1.104 3.306-0.45-0.297-1.018-0.633-1.781-1.053 0 0-20.254-12.506-42.206-34.625-0.576-0.58 11.706 17.554 25.644 32.28-6.567-3.685-24.868-17.001-36.453-27.605 1.423 2.374 3.116 4.66 4.977 6.861 9.675 12.269 22.293 27.408 37.409 39.033-10.621 6.5-25.628 7.005-40.571 7e-3 -3.695-1.732-7.17-3.822-10.386-6.196 6.325 10.117 16.066 18.846 27.923 23.942 14.139 6.076 28.199 5.664 38.671 0.099l-8e-3 0.012c0.047-0.03 0.108-0.063 0.158-0.094 0.43-0.231 0.857-0.466 1.274-0.715 5.031-2.611 14.969-5.261 20.304 5.118 1.306 2.54 4.082-10.921-6.124-23.479z" fill="#fff"/>
</svg>
