<?xml version="1.0" encoding="UTF-8"?>
<!DOCTYPE svg  PUBLIC '-//W3C//DTD SVG 1.1//EN'  'http://www.w3.org/Graphics/SVG/1.1/DTD/svg11.dtd'>
<svg clip-rule="evenodd" fill-rule="evenodd" stroke-linejoin="round" stroke-miterlimit="2" version="1.1" viewBox="0 0 2500 2500" xml:space="preserve" xmlns="http://www.w3.org/2000/svg">
    <g transform="matrix(1.01 0 0 1.01 -12.44 -12.23)">
        <path d="m1250.1 12.11c37.82 0.109 75.75 11.137 114.49 33.321 109.85 63.314 219.79 126.63 329.75 189.94l219.95 126.63c109.96 63.314 219.9 126.63 329.75 189.94 35.25 20.342 61.7 46.108 79.33 77.297v2e-3 -2e-3c18.31 31.193 27.12 68.486 27.12 109.85v1019.8 1.47c-0.11 40.36-8.92 76.03-25.77 107.02-17.62 32.54-44.07 58.99-80.68 80.01-292.93 168.84-586.53 337-879.45 506.51-72.65 42.58-143.56 44.1-215.94 7.76-6.43-3.19-12.88-6.68-19.35-10.47-116.62-69.16-700.43-403.45-874.69-504.48-35.937-21.02-63.059-48.14-80.691-80.01l0.756-0.44c-16.559-30.93-25.165-66.49-25.165-106.69v-1019.8c0-82.723 34.58-146.46 106.46-187.82 173.58-101.03 758.07-435.99 874.7-504.48 39.94-23.413 79.18-35.287 118.53-35.355l0.91 1e-3zm316.55 1415.2c-62.38 110.52-181.04 185.79-317.33 185.79-135.61 0-253.59-73.91-315.97-183.76-30.513-53.56-48.144-114.59-48.144-180.36 0-201.39 162.74-364.12 364.12-364.12 134.26 0 251.56 73.23 314.62 181.72l318.01-183.08c-126.79-218.33-362.76-365.47-633.31-365.47-404.12 0-730.94 327.5-730.94 730.95 0 132.22 35.257 256.98 96.962 364.12 126.12 219.01 363.44 366.83 634.66 366.83 271.91 0 509.23-148.5 635.34-368.87l-318.01-183.75zm402.09-292.25h88.15v-58.99h72.55v58.99h58.99v72.56h-58.99v87.47h58.99v72.55h-58.99v58.99h-72.55v-58.99h-88.15v58.99h-72.55v-58.99h-58.31v-72.55h58.31v-87.47h-58.31v-72.56h58.31v-58.99h72.55v58.99zm0 72.56v87.47h88.15v-87.47h-88.15z" fill="#fff" fill-rule="nonzero"/>
    </g>
</svg>
