<?xml version="1.0" encoding="UTF-8"?>
<!DOCTYPE svg  PUBLIC '-//W3C//DTD SVG 1.1//EN'  'http://www.w3.org/Graphics/SVG/1.1/DTD/svg11.dtd'>
<svg clip-rule="evenodd" fill-rule="evenodd" stroke-linejoin="round" stroke-miterlimit="2" version="1.1" viewBox="0 0 368 368" xml:space="preserve" xmlns="http://www.w3.org/2000/svg">
    <g transform="translate(21.165 .18391)">
        <path d="m325.67 85.824v171.65l-0.766-0.429v1.196l-56.705-32.951v-67.433c0-3.065-2.299-4.597-4.597-3.065l-68.966 39.847c-1.533 0.766-3.065 3.065-3.065 5.364v79.693c0 2.252 1.24 3.676 2.809 3.667l0.1-3e-3c0.539-0.024 1.114-0.215 1.689-0.598l58.237-33.717 56.705 32.95-147.89 85.382v0.442l-0.383-0.221-0.383 0.221-85.823-49.99-62.07-35.834 0.275-0.159-1.041-0.607 56.705-32.95 58.238 33.716c1.532 0.767 4.597-0.766 4.597-3.065v-79.693c0-2.299-0.766-3.832-3.065-5.364l-68.965-39.847c-0.24-0.12-0.516-0.183-0.813-0.197l-0.09-2e-3c-1.593-0.018-3.695 1.36-3.695 3.264v67.433l-56.705 32.95v-171.65l149.42-85.824v65.9l-58.237 33.717c-2.299 0.766-2.299 4.598 0 5.364l68.965 39.847c0.886 0.443 2.028 0.886 3.279 0.884l0.101-1e-3c0.882-0.018 1.817-0.261 2.751-0.883l68.965-39.847c2.299-0.766 2.299-3.832 0-5.364l-58.238-33.717v-65.9l148.66 85.824z" fill="#fff" fill-rule="nonzero"/>
    </g>
</svg>
