<svg clip-rule="evenodd" fill-rule="evenodd" stroke-linejoin="round" stroke-miterlimit="2" viewBox="0 0 1000 1000" xml:space="preserve" xmlns="http://www.w3.org/2000/svg"><path d="M776.605 0H238.48c-37.5 0-67.5 30-67.5 67.5v615c0 37.5 30 67.5 67.5 67.5h538.125c37.5 0 67.5-30 67.5-67.5v-615c0-37.5-30-67.5-67.5-67.5zm30 682.5c0 16.875-13.125 30-30 30H238.48c-16.875 0-30-13.125-30-30v-615c0-16.875 13.125-30 30-30h538.125c16.875 0 30 13.125 30 30v615zm-466.875-45 84.375-75-84.375-75v150zm303.75-303.75c-15-15-43.125-33.75-90-33.75-50.625 0-103.125 13.125-140.625 26.25V112.5h-75v324.375l52.5-24.375s86.25-39.375 161.25-39.375c37.5 0 46.875 20.625 46.875 39.375v225h75v-225c1.875-5.625 1.875-46.875-30-78.75zm-99.375-99.375h75c33.75-39.375 50.625-78.75 56.25-121.875h-75c-7.5 43.125-26.25 82.5-56.25 121.875zM873.758 906.742v-90.148h40.976v90.148c0 20.488 7.17 30.732 23.56 30.732s22.538-9.22 22.538-30.732v-90.148h39.951v91.172c0 39.952-19.463 63.513-63.513 63.513-44.049-1.025-63.512-24.586-63.512-64.537zm-172.1-90.148h40.976v55.318l42-55.318h47.123l-51.22 59.416 55.318 92.196h-46.098l-35.854-60.44-11.269 13.317v47.123h-40.976V816.594zm-194.636 74.782c0-55.318 37.903-78.88 74.782-78.88s74.78 23.562 74.78 78.88-37.902 78.878-74.78 78.878-74.782-22.536-74.782-78.878zm107.562 0c0-27.66-12.292-45.074-33.805-45.074s-33.805 17.415-33.805 45.074 12.293 46.098 33.805 46.098 33.805-17.415 33.805-46.098zm-272.49-74.782h59.415c38.927 0 62.489 13.318 62.489 49.172 0 23.56-10.244 37.902-29.708 44.049l31.756 58.39h-43.024l-29.708-52.244h-11.268v52.245h-39.952V816.594zm58.39 67.61c16.391 0 24.586-5.121 24.586-17.414s-7.17-17.415-24.585-17.415H383.07v34.83h17.415zm-215.123-67.61h108.586V850.4h-67.61v24.585h48.147v31.757h-48.147V934.4h70.683v32.781H185.36V816.594zm-185.417 0H40.92v56.342h50.196v-56.342h40.976v151.612H91.116v-61.464H40.92v61.464H-.056V816.594z" fill="#fff" fill-rule="nonzero"/></svg>