<?xml version="1.0" encoding="UTF-8"?>
<!DOCTYPE svg  PUBLIC '-//W3C//DTD SVG 1.1//EN'  'http://www.w3.org/Graphics/SVG/1.1/DTD/svg11.dtd'>
<svg clip-rule="evenodd" fill-rule="evenodd" stroke-linejoin="round" stroke-miterlimit="2" version="1.1" viewBox="0 0 224 224" xml:space="preserve" xmlns="http://www.w3.org/2000/svg">
    <g transform="translate(-797.13 -287.43)">
        <path d="m987.63 477.92h-33.127v-51.878c0-12.371-0.221-28.296-17.229-28.296-17.254 0-19.894 13.478-19.894 27.395v52.775h-33.126v-106.68h31.801v14.579h0.446c6.475-11.071 18.559-17.708 31.377-17.232 33.575 0 39.766 22.084 39.766 50.815l-0.014 58.524zm-140.75-121.27h-4e-3c-10.546 0-19.224-8.677-19.224-19.223s8.678-19.224 19.224-19.224c10.545 0 19.222 8.676 19.224 19.22v4e-3c0 10.544-8.676 19.222-19.22 19.223m16.563 121.27h-33.161v-106.69h33.161v106.69zm140.7-190.48h-190.51c-8.943-0.101-16.388 7.171-16.497 16.114v191.3c0.105 8.948 7.549 16.228 16.497 16.132h190.51c8.97 0.113 16.44-7.166 16.56-16.132v-191.32c-0.12-8.962-7.6-16.233-16.56-16.115" fill="#fff" fill-rule="nonzero"/>
    </g>
</svg>
