<?xml version="1.0" encoding="UTF-8"?>
<!DOCTYPE svg  PUBLIC '-//W3C//DTD SVG 1.1//EN'  'http://www.w3.org/Graphics/SVG/1.1/DTD/svg11.dtd'>
<svg clip-rule="evenodd" fill-rule="evenodd" stroke-linejoin="round" stroke-miterlimit="2" version="1.1" viewBox="0 0 1e3 1e3" xml:space="preserve" xmlns="http://www.w3.org/2000/svg">
    
        <g transform="matrix(3.125 0 0 3.2051 125 5.6934e-14)">
            <path d="m240 42.12c0-23.247-18.873-42.12-42.12-42.12h-155.76c-23.247-0-42.12 18.873-42.12 42.12v149.76c0 23.247 18.873 42.12 42.12 42.12h155.76c23.247 0 42.12-18.873 42.12-42.12v-149.76zm-48 64.78c-3-1.6-6.2-2.7-9.6-3.4-3.7-0.8-7.4-1.3-11.2-1.3-2-0.1-4.1 0.2-6 0.7-1.3 0.3-2.4 1-3.1 2-0.5 0.8-0.8 1.8-0.8 2.7s0.4 1.8 1 2.6c0.9 1.1 2.1 2 3.4 2.7 2.3 1.2 4.7 2.3 7.1 3.3 5.4 1.8 10.6 4.3 15.4 7.3 3.3 2.1 6 4.9 7.9 8.3 1.6 3.2 2.4 6.7 2.3 10.3 0.1 4.7-1.3 9.4-3.9 13.3-2.8 4-6.7 7.1-11.2 8.9-4.9 2.1-10.9 3.2-18.1 3.2-4.6 0-9.1-0.4-13.6-1.3-3.5-0.6-7-1.7-10.2-3.2-0.7-0.4-1.2-1.1-1.1-1.9v-17.4c0-0.3 0.1-0.7 0.4-0.9s0.6-0.1 0.9 0.1c3.9 2.3 8 3.9 12.4 4.9 3.8 1 7.8 1.5 11.8 1.5 3.8 0 6.5-0.5 8.3-1.4 1.6-0.7 2.7-2.4 2.7-4.2 0-1.4-0.8-2.7-2.4-4s-4.9-2.8-9.8-4.7c-5.1-1.8-9.8-4.2-14.2-7.2-3.1-2.2-5.7-5.1-7.6-8.5-1.6-3.2-2.4-6.7-2.3-10.2 0-4.3 1.2-8.4 3.4-12.1 2.5-4 6.2-7.2 10.5-9.2 4.7-2.4 10.6-3.5 17.7-3.5 4.1 0 8.3 0.3 12.4 0.9 3 0.4 5.9 1.2 8.6 2.3 0.4 0.1 0.8 0.5 1 0.9 0.1 0.4 0.2 0.8 0.2 1.2v16.3c0 0.4-0.2 0.8-0.5 1-0.9 0.2-1.4 0.2-1.8 0zm-138 57.2v-102.9c0-0.7 0.3-1.1 1-1.1 1.7 0 3.3 0 5.6-0.1 2.4-0.1 4.9-0.1 7.6-0.2s5.6-0.1 8.7-0.2 6.1-0.1 9.1-0.1c8.2 0 15 1 20.6 3.1 5 1.7 9.6 4.5 13.4 8.2 3.2 3.2 5.7 7.1 7.3 11.4 1.5 4.2 2.3 8.5 2.3 13 0 8.6-2 15.7-6 21.3s-9.6 9.8-16.1 12.2c-6.8 2.5-14.3 3.4-22.5 3.4-2.4 0-4 0-5-0.1s-2.4-0.1-4.3-0.1v32.1c0.1 0.7-0.4 1.3-1.1 1.4h-19.4c-0.8 0-1.2-0.4-1.2-1.3zm21.8-84.7v33.6c1.4 0.1 2.7 0.2 3.9 0.2h5.3c3.9 0 7.8-0.6 11.5-1.8 3.2-0.9 6-2.8 8.2-5.3 2.1-2.5 3.1-5.9 3.1-10.3 0.1-3.1-0.7-6.2-2.3-8.9-1.7-2.6-4.1-4.6-7-5.7-3.7-1.5-7.7-2.1-11.8-2-2.6 0-4.9 0-6.8 0.1-2-0.1-3.4 0-4.1 0.1z" fill="#fff"/>
        </g>
        <g transform="matrix(.94781 0 0 .94781 -18.089 16.534)">
            <g transform="matrix(248.5 0 0 248.5 .88987 988)">
                <path d="m0.077-0v-0.666c0.051-9e-3 0.11-0.014 0.177-0.014 0.085 0 0.149 0.018 0.191 0.055 0.043 0.036 0.064 0.084 0.064 0.144 0 0.07-0.024 0.124-0.073 0.162s-0.114 0.057-0.193 0.057c-0.034 0-0.058-2e-3 -0.073-7e-3v0.269h-0.093zm0.093-0.6v0.256c0.017 5e-3 0.042 8e-3 0.075 8e-3 0.054 0 0.096-0.012 0.126-0.037s0.045-0.06 0.045-0.104c0-0.042-0.014-0.074-0.042-0.096-0.028-0.023-0.068-0.034-0.119-0.034-0.032 0-0.061 2e-3 -0.085 7e-3z" fill="#fff" fill-rule="nonzero"/>
            </g>
            <g transform="matrix(248.5 0 0 248.5 124.39 988)">
                <path d="m0.075-0v-0.712h0.093v0.305h2e-3c0.016-0.027 0.039-0.049 0.068-0.064 0.029-0.016 0.059-0.024 0.09-0.024 0.05 0 0.092 0.018 0.125 0.054s0.05 0.088 0.05 0.157v0.284h-0.093v-0.274c0-0.046-0.01-0.081-0.029-0.106-0.02-0.025-0.049-0.038-0.086-0.038-0.032 0-0.061 0.012-0.087 0.036-0.027 0.024-0.04 0.054-0.04 0.092v0.29h-0.093z" fill="#fff" fill-rule="nonzero"/>
            </g>
            <g transform="matrix(248.5 0 0 248.5 255.1 988)">
                <path d="m0.532-0.247c0 0.052-0.011 0.097-0.032 0.136-0.022 0.04-0.052 0.069-0.092 0.09-0.038 0.021-0.081 0.032-0.126 0.032-0.071 0-0.129-0.023-0.175-0.069s-0.069-0.106-0.069-0.18c0-0.078 0.024-0.141 0.071-0.187 0.048-0.047 0.108-0.07 0.18-0.07s0.131 0.023 0.176 0.069c0.044 0.046 0.067 0.106 0.067 0.179zm-0.399 6e-3c0 0.053 0.014 0.097 0.042 0.131 0.029 0.035 0.064 0.052 0.107 0.052 0.044 0 0.08-0.017 0.109-0.052s0.044-0.079 0.044-0.134c0-0.05-0.013-0.093-0.04-0.129-0.027-0.035-0.064-0.053-0.11-0.053-0.047 0-0.084 0.018-0.111 0.053s-0.041 0.079-0.041 0.132z" fill="#fff" fill-rule="nonzero"/>
            </g>
            <g transform="matrix(248.5 0 0 248.5 384.82 988)">
                <path d="m0.094-0.574 0.091-0.027v0.117h0.129v0.071h-0.129v0.252c0 0.034 5e-3 0.058 0.016 0.073s0.028 0.022 0.052 0.022c0.022 0 0.039-2e-3 0.053-6e-3l4e-3 0.07c-0.023 9e-3 -0.051 0.013-0.083 0.013-0.089 0-0.133-0.055-0.133-0.166v-0.258h-0.076v-0.071h0.076v-0.09z" fill="#fff" fill-rule="nonzero"/>
            </g>
            <g transform="matrix(248.5 0 0 248.5 456.38 988)">
                <path d="m0.532-0.247c0 0.052-0.011 0.097-0.032 0.136-0.022 0.04-0.052 0.069-0.092 0.09-0.038 0.021-0.081 0.032-0.126 0.032-0.071 0-0.129-0.023-0.175-0.069s-0.069-0.106-0.069-0.18c0-0.078 0.024-0.141 0.071-0.187 0.048-0.047 0.108-0.07 0.18-0.07s0.131 0.023 0.176 0.069c0.044 0.046 0.067 0.106 0.067 0.179zm-0.399 6e-3c0 0.053 0.014 0.097 0.042 0.131 0.029 0.035 0.064 0.052 0.107 0.052 0.044 0 0.08-0.017 0.109-0.052s0.044-0.079 0.044-0.134c0-0.05-0.013-0.093-0.04-0.129-0.027-0.035-0.064-0.053-0.11-0.053-0.047 0-0.084 0.018-0.111 0.053s-0.041 0.079-0.041 0.132z" fill="#fff" fill-rule="nonzero"/>
            </g>
            <g transform="matrix(248.5 0 0 248.5 586.1 988)">
                <path d="m0.041-0.023 0.022-0.071c0.039 0.024 0.08 0.036 0.122 0.036 0.03 0 0.053-6e-3 0.07-0.019 0.016-0.013 0.024-0.03 0.024-0.051 0-0.02-7e-3 -0.037-0.02-0.05-0.014-0.013-0.037-0.025-0.071-0.036-0.089-0.03-0.133-0.076-0.133-0.137 0-0.041 0.016-0.075 0.047-0.103 0.032-0.027 0.074-0.041 0.126-0.041 0.049 0 0.09 0.01 0.124 0.03l-0.023 0.067c-0.034-0.019-0.068-0.029-0.104-0.029-0.025 0-0.044 6e-3 -0.058 0.018-0.015 0.012-0.022 0.028-0.022 0.047 0 0.017 6e-3 0.031 0.018 0.043s0.038 0.024 0.076 0.038c0.047 0.017 0.08 0.036 0.101 0.059 0.02 0.023 0.03 0.052 0.03 0.086 0 0.044-0.017 0.079-0.05 0.107-0.034 0.026-0.079 0.04-0.137 0.04-0.053 0-0.1-0.011-0.142-0.034z" fill="#fff" fill-rule="nonzero"/>
            </g>
            <g transform="matrix(248.5 0 0 248.5 676.3 988)">
                <path d="m0.075-0v-0.712h0.093v0.305h2e-3c0.016-0.027 0.039-0.049 0.068-0.064 0.029-0.016 0.059-0.024 0.09-0.024 0.05 0 0.092 0.018 0.125 0.054s0.05 0.088 0.05 0.157v0.284h-0.093v-0.274c0-0.046-0.01-0.081-0.029-0.106-0.02-0.025-0.049-0.038-0.086-0.038-0.032 0-0.061 0.012-0.087 0.036-0.027 0.024-0.04 0.054-0.04 0.092v0.29h-0.093z" fill="#fff" fill-rule="nonzero"/>
            </g>
            <g transform="matrix(248.5 0 0 248.5 807.01 988)">
                <path d="m0.532-0.247c0 0.052-0.011 0.097-0.032 0.136-0.022 0.04-0.052 0.069-0.092 0.09-0.038 0.021-0.081 0.032-0.126 0.032-0.071 0-0.129-0.023-0.175-0.069s-0.069-0.106-0.069-0.18c0-0.078 0.024-0.141 0.071-0.187 0.048-0.047 0.108-0.07 0.18-0.07s0.131 0.023 0.176 0.069c0.044 0.046 0.067 0.106 0.067 0.179zm-0.399 6e-3c0 0.053 0.014 0.097 0.042 0.131 0.029 0.035 0.064 0.052 0.107 0.052 0.044 0 0.08-0.017 0.109-0.052s0.044-0.079 0.044-0.134c0-0.05-0.013-0.093-0.04-0.129-0.027-0.035-0.064-0.053-0.11-0.053-0.047 0-0.084 0.018-0.111 0.053s-0.041 0.079-0.041 0.132z" fill="#fff" fill-rule="nonzero"/>
            </g>
            <g transform="matrix(248.5 0 0 248.5 936.73 988)">
                <path d="m0.075 0.198v-0.523c0-0.065-1e-3 -0.118-4e-3 -0.159h0.083l5e-3 0.084h2e-3c0.04-0.063 0.1-0.095 0.18-0.095 0.061 0 0.111 0.023 0.152 0.069 0.04 0.046 0.06 0.104 0.06 0.176 0 0.08-0.022 0.143-0.065 0.19-0.044 0.047-0.098 0.071-0.163 0.071-0.033 0-0.063-7e-3 -0.091-0.02-0.027-0.013-0.049-0.032-0.064-0.057h-2e-3v0.264h-0.093zm0.093-0.476v0.078c0 0.039 0.014 0.072 0.041 0.098 0.027 0.027 0.06 0.04 0.098 0.04 0.047 0 0.084-0.017 0.111-0.05s0.041-0.078 0.041-0.134c0-0.051-0.013-0.093-0.04-0.126s-0.063-0.049-0.108-0.049c-0.029 0-0.055 8e-3 -0.079 0.025-0.024 0.016-0.041 0.036-0.05 0.06s-0.014 0.043-0.014 0.058z" fill="#fff" fill-rule="nonzero"/>
            </g>
        </g>
    
</svg>
