<?xml version="1.0" encoding="UTF-8"?>
<!DOCTYPE svg  PUBLIC '-//W3C//DTD SVG 1.1//EN'  'http://www.w3.org/Graphics/SVG/1.1/DTD/svg11.dtd'>
<svg clip-rule="evenodd" fill-rule="evenodd" stroke-linejoin="round" stroke-miterlimit="2" version="1.1" viewBox="0 0 594 87" xml:space="preserve" xmlns="http://www.w3.org/2000/svg">
    <g transform="translate(298.48 87.016)">
        <g transform="matrix(120 0 0 120 -299.65 -1)">
            <path d="m0.082-0.179c1e-3 -2e-3 2e-3 -2e-3 3e-3 -2e-3 2e-3 0 4e-3 0 5e-3 1e-3 0.026 0.021 0.055 0.038 0.088 0.05 0.034 0.013 0.069 0.019 0.106 0.019 0.042 0 0.075-8e-3 0.099-0.026 0.023-0.016 0.034-0.038 0.034-0.066 0-0.051-0.029-0.081-0.086-0.089-8e-3 0-0.016-1e-3 -0.023-2e-3s-0.015-2e-3 -0.022-3e-3 -0.015-2e-3 -0.023-4e-3c-7e-3 -1e-3 -0.016-2e-3 -0.025-3e-3 -0.03-4e-3 -0.058-0.012-0.082-0.023-0.023-0.012-0.044-0.027-0.06-0.045-0.016-0.019-0.028-0.04-0.036-0.062-9e-3 -0.022-0.013-0.046-0.013-0.073 0-0.062 0.021-0.112 0.062-0.151s0.099-0.059 0.172-0.059c0.022 0 0.043 2e-3 0.064 6e-3s0.041 9e-3 0.06 0.015c0.019 7e-3 0.038 0.014 0.056 0.023 0.017 9e-3 0.034 0.019 0.051 0.03 3e-3 2e-3 3e-3 5e-3 1e-3 8e-3l-0.059 0.088c-2e-3 3e-3 -5e-3 3e-3 -8e-3 1e-3 -0.025-0.016-0.052-0.029-0.081-0.038-0.028-0.01-0.058-0.015-0.089-0.015-0.015 0-0.03 2e-3 -0.043 6e-3s-0.025 0.01-0.036 0.018c-0.021 0.016-0.032 0.039-0.032 0.07 0 0.018 7e-3 0.035 0.022 0.052 7e-3 8e-3 0.016 0.015 0.028 0.02 0.012 6e-3 0.027 9e-3 0.045 0.012 9e-3 2e-3 0.02 3e-3 0.033 5e-3s0.028 4e-3 0.045 6e-3c0.067 8e-3 0.116 0.033 0.148 0.074 0.033 0.04 0.049 0.084 0.049 0.133 0 0.066-0.023 0.118-0.069 0.155-0.046 0.036-0.107 0.054-0.183 0.054-0.106 0-0.197-0.032-0.271-0.097-2e-3 -1e-3 -2e-3 -3e-3 -2e-3 -4e-3 0-2e-3 0-3e-3 1e-3 -5e-3l0.071-0.079z" fill="#fff" fill-rule="nonzero"/>
        </g>
        <g transform="matrix(120 0 0 120 -230.8 -1)">
            <path d="m0.048-0.355c0-0.043 0-0.077 2e-3 -0.104 1e-3 -0.027 2e-3 -0.047 4e-3 -0.06 2e-3 -0.012 6e-3 -0.024 0.01-0.035 4e-3 -0.012 9e-3 -0.023 0.016-0.034h-1e-3c0.017-0.031 0.044-0.061 0.082-0.088s0.086-0.041 0.142-0.041 0.103 0.014 0.141 0.041c0.039 0.028 0.066 0.057 0.083 0.088 0.012 0.022 0.021 0.045 0.025 0.069 2e-3 0.013 4e-3 0.033 5e-3 0.06s2e-3 0.061 2e-3 0.104c0 0.084-3e-3 0.138-7e-3 0.164-3e-3 0.013-6e-3 0.025-0.01 0.036-4e-3 0.012-9e-3 0.023-0.014 0.033-0.017 0.031-0.045 0.06-0.084 0.088-0.038 0.027-0.085 0.04-0.141 0.04s-0.103-0.013-0.142-0.04c-0.038-0.027-0.065-0.056-0.082-0.088h1e-3c-7e-3 -0.011-0.012-0.022-0.016-0.034-4e-3 -0.011-8e-3 -0.023-0.01-0.035s-3e-3 -0.032-4e-3 -0.059c-2e-3 -0.027-2e-3 -0.062-2e-3 -0.105zm0.118 0c0 0.036 0 0.065 1e-3 0.088s3e-3 0.04 5e-3 0.051c3e-3 0.01 7e-3 0.02 0.011 0.03 5e-3 0.01 0.01 0.018 0.016 0.026 0.011 0.014 0.024 0.025 0.042 0.035 0.017 9e-3 0.038 0.014 0.062 0.014s0.045-5e-3 0.062-0.014c0.017-0.01 0.031-0.021 0.041-0.035 0.014-0.017 0.023-0.035 0.027-0.056 5e-3 -0.021 8e-3 -0.067 8e-3 -0.139 0-0.035-1e-3 -0.065-2e-3 -0.088s-3e-3 -0.039-6e-3 -0.05c-2e-3 -0.011-6e-3 -0.021-0.01-0.031-5e-3 -0.01-0.01-0.018-0.016-0.026-5e-3 -6e-3 -0.011-0.013-0.018-0.018-7e-3 -6e-3 -0.015-0.011-0.024-0.016-9e-3 -4e-3 -0.018-8e-3 -0.029-0.01-0.01-3e-3 -0.021-5e-3 -0.033-5e-3 -0.024 0-0.045 5e-3 -0.062 0.015-0.018 0.01-0.031 0.021-0.042 0.034-6e-3 8e-3 -0.011 0.016-0.016 0.026-4e-3 0.01-8e-3 0.02-0.011 0.031-2e-3 0.011-4e-3 0.028-5e-3 0.051s-1e-3 0.052-1e-3 0.087z" fill="#fff" fill-rule="nonzero"/>
        </g>
        <g transform="matrix(120 0 0 120 -157.62 -1)">
            <path d="m0.077 0c-4e-3 0-6e-3 -1e-3 -6e-3 -5e-3v-0.7c0-4e-3 2e-3 -6e-3 6e-3 -6e-3h0.106c4e-3 0 6e-3 2e-3 6e-3 6e-3v0.594h0.335c4e-3 0 6e-3 2e-3 6e-3 6e-3v0.1c0 4e-3 -2e-3 5e-3 -6e-3 5e-3h-0.447z" fill="#fff" fill-rule="nonzero"/>
        </g>
        <g transform="matrix(120 0 0 120 -90.938 -1)">
            <path d="m0.059-0.705c0-4e-3 2e-3 -6e-3 5e-3 -6e-3h0.107c3e-3 0 5e-3 2e-3 5e-3 6e-3v0.451c0 0.047 0.013 0.082 0.039 0.107 0.027 0.024 0.059 0.036 0.098 0.036s0.071-0.012 0.098-0.036c0.026-0.025 0.039-0.06 0.039-0.107v-0.451c0-4e-3 2e-3 -6e-3 6e-3 -6e-3h0.106c4e-3 0 6e-3 2e-3 6e-3 6e-3v0.463c0 0.075-0.025 0.135-0.075 0.18-0.049 0.046-0.109 0.068-0.18 0.068-0.07 0-0.131-0.022-0.18-0.068-0.05-0.045-0.074-0.105-0.074-0.18v-0.463z" fill="#fff" fill-rule="nonzero"/>
        </g>
        <g transform="matrix(120 0 0 120 -15.352 -1)">
            <path d="m0.196 0c-4e-3 0-6e-3 -1e-3 -6e-3 -5e-3v-0.6h-0.186c-4e-3 0-6e-3 -2e-3 -6e-3 -6e-3v-0.094c0-4e-3 2e-3 -6e-3 6e-3 -6e-3h0.489c4e-3 0 6e-3 2e-3 6e-3 6e-3v0.094c0 4e-3 -2e-3 6e-3 -6e-3 6e-3h-0.185v0.6c0 4e-3 -2e-3 5e-3 -6e-3 5e-3h-0.106z" fill="#fff" fill-rule="nonzero"/>
        </g>
        <g transform="matrix(120 0 0 120 75.586 -1)">
            <path d="m0.048-0.355c0-0.043 0-0.077 2e-3 -0.104 1e-3 -0.027 2e-3 -0.047 4e-3 -0.06 2e-3 -0.012 6e-3 -0.024 0.01-0.035 4e-3 -0.012 9e-3 -0.023 0.016-0.034h-1e-3c0.017-0.031 0.044-0.061 0.082-0.088s0.086-0.041 0.142-0.041 0.103 0.014 0.141 0.041c0.039 0.028 0.066 0.057 0.083 0.088 0.012 0.022 0.021 0.045 0.025 0.069 2e-3 0.013 4e-3 0.033 5e-3 0.06s2e-3 0.061 2e-3 0.104c0 0.084-3e-3 0.138-7e-3 0.164-3e-3 0.013-6e-3 0.025-0.01 0.036-4e-3 0.012-9e-3 0.023-0.014 0.033-0.017 0.031-0.045 0.06-0.084 0.088-0.038 0.027-0.085 0.04-0.141 0.04s-0.103-0.013-0.142-0.04c-0.038-0.027-0.065-0.056-0.082-0.088h1e-3c-7e-3 -0.011-0.012-0.022-0.016-0.034-4e-3 -0.011-8e-3 -0.023-0.01-0.035s-3e-3 -0.032-4e-3 -0.059c-2e-3 -0.027-2e-3 -0.062-2e-3 -0.105zm0.118 0c0 0.036 0 0.065 1e-3 0.088s3e-3 0.04 5e-3 0.051c3e-3 0.01 7e-3 0.02 0.011 0.03 5e-3 0.01 0.01 0.018 0.016 0.026 0.011 0.014 0.024 0.025 0.042 0.035 0.017 9e-3 0.038 0.014 0.062 0.014s0.045-5e-3 0.062-0.014c0.017-0.01 0.031-0.021 0.041-0.035 0.014-0.017 0.023-0.035 0.027-0.056 5e-3 -0.021 8e-3 -0.067 8e-3 -0.139 0-0.035-1e-3 -0.065-2e-3 -0.088s-3e-3 -0.039-6e-3 -0.05c-2e-3 -0.011-6e-3 -0.021-0.01-0.031-5e-3 -0.01-0.01-0.018-0.016-0.026-5e-3 -6e-3 -0.011-0.013-0.018-0.018-7e-3 -6e-3 -0.015-0.011-0.024-0.016-9e-3 -4e-3 -0.018-8e-3 -0.029-0.01-0.01-3e-3 -0.021-5e-3 -0.033-5e-3 -0.024 0-0.045 5e-3 -0.062 0.015-0.018 0.01-0.031 0.021-0.042 0.034-6e-3 8e-3 -0.011 0.016-0.016 0.026-4e-3 0.01-8e-3 0.02-0.011 0.031-2e-3 0.011-4e-3 0.028-5e-3 0.051s-1e-3 0.052-1e-3 0.087z" fill="#fff" fill-rule="nonzero"/>
        </g>
        <g transform="matrix(120,0,0,120,148.77,-1)">
            <path d="m0.077 0c-4e-3 0-6e-3 -1e-3 -6e-3 -5e-3v-0.7c0-4e-3 2e-3 -6e-3 6e-3 -6e-3h0.101c2e-3 0 3e-3 1e-3 5e-3 3e-3l0.307 0.484v-0.481c0-4e-3 2e-3 -6e-3 6e-3 -6e-3h0.107c3e-3 0 5e-3 2e-3 5e-3 6e-3v0.7c0 4e-3 -2e-3 5e-3 -5e-3 5e-3h-0.101c-2e-3 0-3e-3 -0-4e-3 -2e-3l-0.309-0.485v0.482c0 4e-3 -2e-3 5e-3 -5e-3 5e-3h-0.107z" fill="#fff" fill-rule="nonzero"/>
        </g>
        <g transform="matrix(120 0 0 120 230.8 -1)">
            <path d="m0.082-0.179c1e-3 -2e-3 2e-3 -2e-3 3e-3 -2e-3 2e-3 0 4e-3 0 5e-3 1e-3 0.026 0.021 0.055 0.038 0.088 0.05 0.034 0.013 0.069 0.019 0.106 0.019 0.042 0 0.075-8e-3 0.099-0.026 0.023-0.016 0.034-0.038 0.034-0.066 0-0.051-0.029-0.081-0.086-0.089-8e-3 0-0.016-1e-3 -0.023-2e-3s-0.015-2e-3 -0.022-3e-3 -0.015-2e-3 -0.023-4e-3c-7e-3 -1e-3 -0.016-2e-3 -0.025-3e-3 -0.03-4e-3 -0.058-0.012-0.082-0.023-0.023-0.012-0.044-0.027-0.06-0.045-0.016-0.019-0.028-0.04-0.036-0.062-9e-3 -0.022-0.013-0.046-0.013-0.073 0-0.062 0.021-0.112 0.062-0.151s0.099-0.059 0.172-0.059c0.022 0 0.043 2e-3 0.064 6e-3s0.041 9e-3 0.06 0.015c0.019 7e-3 0.038 0.014 0.056 0.023 0.017 9e-3 0.034 0.019 0.051 0.03 3e-3 2e-3 3e-3 5e-3 1e-3 8e-3l-0.059 0.088c-2e-3 3e-3 -5e-3 3e-3 -8e-3 1e-3 -0.025-0.016-0.052-0.029-0.081-0.038-0.028-0.01-0.058-0.015-0.089-0.015-0.015 0-0.03 2e-3 -0.043 6e-3s-0.025 0.01-0.036 0.018c-0.021 0.016-0.032 0.039-0.032 0.07 0 0.018 7e-3 0.035 0.022 0.052 7e-3 8e-3 0.016 0.015 0.028 0.02 0.012 6e-3 0.027 9e-3 0.045 0.012 9e-3 2e-3 0.02 3e-3 0.033 5e-3s0.028 4e-3 0.045 6e-3c0.067 8e-3 0.116 0.033 0.148 0.074 0.033 0.04 0.049 0.084 0.049 0.133 0 0.066-0.023 0.118-0.069 0.155-0.046 0.036-0.107 0.054-0.183 0.054-0.106 0-0.197-0.032-0.271-0.097-2e-3 -1e-3 -2e-3 -3e-3 -2e-3 -4e-3 0-2e-3 0-3e-3 1e-3 -5e-3l0.071-0.079z" fill="#fff" fill-rule="nonzero"/>
        </g>
    </g>
    <g transform="matrix(.02912 0 0 .02912 296.9 -18.054)">
        <path d="m1873.5 730.07c-12.91-3.479-21.96-7.474-25.5-12.066v-64c0-25.716 207.5-34 311.5-34s312.5 4.416 312.5 34v64c-3.55 4.4-13 8.266-26.5 11.656v2584.3c0 157.85-128.15 286-286 286s-286-128.15-286-286v-2583.9zm111 15.296v2603.1c0 38.36 45.14 68.5 83.5 68.5s59.73-28.14 55.5-68.5v-2596.3c-34.35-0.922-88-2.88-139-6.876zm175.5-105.36c142.67 0 258.5 9.634 258.5 21.5s-115.83 21.5-258.5 21.5-258.5-9.634-258.5-21.5 115.83-21.5 258.5-21.5z" fill="#fff"/>
    </g>
</svg>
