<?xml version="1.0" encoding="UTF-8"?>
<!DOCTYPE svg  PUBLIC '-//W3C//DTD SVG 1.1//EN'  'http://www.w3.org/Graphics/SVG/1.1/DTD/svg11.dtd'>
<svg clip-rule="evenodd" fill-rule="evenodd" stroke-linejoin="round" stroke-miterlimit="2" version="1.1" viewBox="0 0 1e3 1e3" xml:space="preserve" xmlns="http://www.w3.org/2000/svg">
    <g transform="scale(2)">
        <g transform="matrix(.51513 0 0 .51513 -113.55 343.29)">
            <path d="m411.49 200v-104.22h43.678v105.75c0 17.624 9.196 29.118 30.652 29.118 19.923 0 29.885-12.26 29.885-29.885v-104.98h43.678v104.22c0 40.613-24.521 65.134-73.563 65.134-49.809 0.766-74.33-23.755-74.33-65.134zm167.05-64.368h39.847v17.625h0.766c9.195-13.793 21.456-20.69 39.081-20.69 27.586 0 43.678 19.923 43.678 48.276v81.992h-40.613v-74.329c0-13.027-6.897-22.222-19.924-22.222s-22.222 11.494-22.222 26.819v69.732h-40.613v-127.2zm144.06-49.808h40.613v32.95h-40.613v-32.95zm0 49.808h40.613v126.44h-40.613v-126.44zm72.031 93.487v-60.537h-16.858v-32.95h16.858v-39.847h39.08v39.847h22.989v32.95h-22.989v52.108c0 9.961 5.364 12.26 13.794 12.26h9.195v29.119c-3.831 0.766-11.494 2.299-22.222 2.299-22.989 0-39.847-7.663-39.847-35.249zm87.356 43.678h13.793c11.495 0 16.859-4.598 16.859-13.027 0-5.364-2.299-13.027-7.663-26.054l-37.548-97.318h42.146l16.858 53.64c3.831 12.261 7.663 29.119 7.663 29.119h0.766s3.831-16.858 7.663-29.119l16.858-53.64h40.613l-43.678 127.97c-9.962 29.885-22.222 39.847-47.51 39.847h-26.053l-0.767-31.418z" fill="#fff" fill-rule="nonzero"/>
        </g>
        <g transform="matrix(1.0206 0 0 1.0206 83.814 0)">
            <path d="m325.67 85.824v171.65l-0.766-0.429v1.196l-56.705-32.951v-67.433c0-3.065-2.299-4.597-4.597-3.065l-68.966 39.847c-1.533 0.766-3.065 3.065-3.065 5.364v79.693c0 2.252 1.24 3.676 2.809 3.667l0.1-3e-3c0.539-0.024 1.114-0.215 1.689-0.598l58.237-33.717 56.705 32.95-147.89 85.382v0.442l-0.383-0.221-0.383 0.221-85.823-49.99-62.07-35.834 0.275-0.159-1.041-0.607 56.705-32.95 58.238 33.716c1.532 0.767 4.597-0.766 4.597-3.065v-79.693c0-2.299-0.766-3.832-3.065-5.364l-68.965-39.847c-0.24-0.12-0.516-0.183-0.813-0.197l-0.09-2e-3c-1.593-0.018-3.695 1.36-3.695 3.264v67.433l-56.705 32.95v-171.65l149.42-85.824v65.9l-58.237 33.717c-2.299 0.766-2.299 4.598 0 5.364l68.965 39.847c0.886 0.443 2.028 0.886 3.279 0.884l0.101-1e-3c0.882-0.018 1.817-0.261 2.751-0.883l68.965-39.847c2.299-0.766 2.299-3.832 0-5.364l-58.238-33.717v-65.9l148.66 85.824z" fill="#fff" fill-rule="nonzero"/>
        </g>
    </g>
</svg>
